<svg width="17" height="16" viewBox="0 0 17 16" fill="none" xmlns="http://www.w3.org/2000/svg">
<path fill-rule="evenodd" clip-rule="evenodd" d="M16.9844 8C16.9844 12.4183 13.4027 16 8.98438 16C4.5661 16 0.984375 12.4183 0.984375 8C0.984375 3.58172 4.5661 0 8.98438 0C13.4027 0 16.9844 3.58172 16.9844 8ZM10.5276 8.12092L11.1676 7.46669C11.5729 7.05425 11.8289 6.49247 11.8289 5.86669C11.8289 5.1123 11.5292 4.3888 10.9958 3.85537C10.4624 3.32193 9.73888 3.02225 8.98449 3.02225C8.23009 3.02225 7.5066 3.32193 6.97316 3.85537C6.43973 4.3888 6.14004 5.1123 6.14004 5.86669H7.56227C7.56227 5.4895 7.71211 5.12775 7.97882 4.86103C8.24554 4.59431 8.60729 4.44447 8.98449 4.44447C9.76671 4.44447 10.4067 5.07736 10.4067 5.86669C10.4067 6.25781 10.2503 6.61336 9.98715 6.86936L9.10538 7.76536C8.59338 8.27736 8.27338 8.98847 8.27338 9.77781V10.1334H9.6956C9.6956 9.06669 10.0156 8.63292 10.5276 8.12092ZM8.27338 11.5556V12.9778H9.6956V11.5556H8.27338Z" fill="#3271D2"/>
</svg>
